<?xml version="1.0" encoding="UTF-8"?>
<svg id="Layer_1" xmlns="http://www.w3.org/2000/svg" version="1.1" viewBox="0 0 88.2 40">
  <!-- Generator: Adobe Illustrator 30.2.1, SVG Export Plug-In . SVG Version: 2.1.1 Build 1)  -->
  <defs>
    <style>
      .st0 {
        fill: #1a3a6b;
      }

      .st1 {
        isolation: isolate;
      }
    </style>
  </defs>
  <g class="st1">
    <path class="st0" d="M10.1,26l1.8-10.9h4.3c.8,0,1.5.2,2,.5s.9.7,1.1,1.3c.2.6.3,1.2.1,1.9-.1.7-.4,1.4-.8,1.9-.4.5-.9,1-1.6,1.3s-1.4.5-2.2.5h-2.7l.3-1.8h2.4c.5,0,.8,0,1.2-.2s.6-.4.8-.7c.2-.3.3-.6.4-1,0-.4,0-.7,0-1,0-.3-.3-.5-.6-.6-.3-.2-.6-.2-1.1-.2h-1.6l-1.5,9.1h-2.2Z"/>
    <path class="st0" d="M20,26l1.4-8.2h2.1l-.2,1.4h0c.2-.5.5-.9.9-1.2s.8-.4,1.3-.4.2,0,.4,0c.1,0,.2,0,.3,0l-.3,2c0,0-.2,0-.4,0-.2,0-.4,0-.5,0-.3,0-.6,0-.9.2-.3.1-.5.3-.7.6-.2.3-.3.6-.4.9l-.8,4.7h-2.2Z"/>
    <path class="st0" d="M29.8,26.2c-.7,0-1.4-.1-1.9-.4-.5-.3-.9-.6-1.2-1.1s-.4-1.1-.4-1.8.1-1.3.3-2c.2-.6.6-1.2,1-1.7s.9-.9,1.5-1.1c.6-.3,1.2-.4,1.9-.4s1.1,0,1.5.3c.5.2.8.5,1.1.8.3.4.4.8.4,1.3s-.1.9-.4,1.3c-.3.3-.7.6-1.3.8-.6.2-1.3.3-2.1.4s-1.8.1-2.9.1l.2-1.3c.9,0,1.7,0,2.3,0,.6,0,1.1,0,1.4-.2.3,0,.6-.2.7-.3.1-.1.2-.3.2-.5s-.1-.5-.3-.6-.5-.2-.9-.2-.9.1-1.2.4-.5.6-.7.9-.3.8-.4,1.2c0,.4-.1.8-.1,1.1s0,.6.1.8c0,.2.3.4.5.6.2.1.5.2.9.2s.8,0,1.1-.3c.3-.2.6-.4.7-.7l2,.3c-.3.7-.7,1.3-1.4,1.7-.7.4-1.5.7-2.5.7Z"/>
    <path class="st0" d="M38.9,26.2c-.7,0-1.4-.1-1.9-.4-.5-.3-.9-.7-1.2-1.2-.3-.5-.4-1.1-.4-1.8s.1-1.2.3-1.8c.2-.6.5-1.1.9-1.6.4-.5.9-.9,1.5-1.1.6-.3,1.2-.4,2-.4s.9,0,1.3.2.7.3,1,.5c.3.2.5.5.7.9.2.3.2.7.3,1.1l-2.1.4c0-.2,0-.4,0-.6,0-.2-.1-.3-.2-.4-.1-.1-.2-.2-.4-.3-.1,0-.3,0-.5,0-.4,0-.8.1-1.1.3-.3.2-.6.5-.8.8-.2.3-.3.7-.4,1.1,0,.4-.1.8-.1,1.1s0,.6.1.9c0,.2.2.4.4.6.2.1.5.2.8.2s.4,0,.6-.1.4-.2.6-.3c.2-.1.3-.3.5-.5.1-.2.2-.4.3-.6l2,.4c-.1.4-.3.8-.6,1.2-.3.3-.5.6-.9.9-.3.2-.7.4-1.1.6-.4.1-.9.2-1.4.2Z"/>
    <path class="st0" d="M44.3,26l1.4-8.2h2.2l-1.4,8.2h-2.2ZM46.9,16.7c-.3,0-.6-.1-.8-.3-.2-.2-.3-.5-.2-.8,0-.3.2-.6.5-.8.3-.2.6-.3.9-.3s.6.1.8.3c.2.2.3.5.2.8,0,.3-.2.6-.5.8-.3.2-.6.3-.9.3Z"/>
    <path class="st0" d="M51.6,21.3l-.8,4.7h-2.2l1.8-10.9h2.2l-.8,4.8h-.2c.2-.5.5-.8.8-1.2.3-.3.6-.6,1-.7.4-.2.8-.3,1.2-.3s1,.1,1.4.4c.4.2.7.6.9,1.1.2.5.2,1,.1,1.7l-.9,5.2h-2.2l.8-4.8c0-.5,0-.9-.2-1.2-.2-.3-.6-.4-1-.4s-.6,0-.9.2c-.3.1-.5.3-.7.6-.2.3-.3.6-.4.9Z"/>
    <path class="st0" d="M62,26.2c-.7,0-1.4-.1-1.9-.4s-.9-.7-1.2-1.2c-.3-.5-.4-1.1-.4-1.8s.1-1.3.3-1.9c.2-.6.5-1.1.9-1.6.4-.5.9-.8,1.5-1.1.6-.3,1.2-.4,2-.4s1.4.1,1.9.4c.5.3.9.7,1.2,1.2.3.5.4,1.1.4,1.8s-.1,1.3-.3,1.9c-.2.6-.5,1.1-.9,1.6-.4.5-.9.8-1.5,1.1-.6.3-1.2.4-2,.4ZM62.1,24.4c.4,0,.8-.1,1.1-.3.3-.2.5-.5.7-.8.2-.3.3-.7.4-1.1,0-.4.1-.8.1-1.1s0-.6-.2-.9c-.1-.2-.2-.4-.5-.6s-.5-.2-.8-.2-.8.1-1.1.3c-.3.2-.5.5-.7.8-.2.3-.3.7-.4,1.1s-.1.8-.1,1.1.1.9.3,1.2.6.5,1,.5Z"/>
    <path class="st0" d="M71.8,15.1l-1.8,10.9h-2.2l1.8-10.9h2.2Z"/>
    <path class="st0" d="M75.9,26.2c-.7,0-1.4-.1-1.9-.4-.5-.3-.9-.6-1.2-1.1s-.4-1.1-.4-1.8.1-1.3.3-2c.2-.6.6-1.2,1-1.7s.9-.9,1.5-1.1c.6-.3,1.2-.4,1.9-.4s1.1,0,1.5.3c.5.2.8.5,1.1.8.3.4.4.8.4,1.3s-.1.9-.4,1.3c-.3.3-.7.6-1.3.8-.6.2-1.3.3-2.1.4s-1.8.1-2.9.1l.2-1.3c.9,0,1.7,0,2.3,0,.6,0,1.1,0,1.4-.2.3,0,.6-.2.7-.3.1-.1.2-.3.2-.5s-.1-.5-.3-.6c-.2-.2-.5-.2-.9-.2s-.9.1-1.2.4-.5.6-.7.9-.3.8-.4,1.2c0,.4-.1.8-.1,1.1s0,.6.1.8c0,.2.3.4.5.6.2.1.5.2.9.2s.8,0,1.1-.3c.3-.2.5-.4.7-.7l2,.3c-.3.7-.8,1.3-1.4,1.7-.7.4-1.5.7-2.5.7Z"/>
  </g>
</svg>